<svg width="22" height="19" viewBox="0 0 22 19" fill="none" xmlns="http://www.w3.org/2000/svg">
<path fill-rule="evenodd" clip-rule="evenodd" d="M9.698 0.798983C10.0605 0.488058 10.5224 0.317139 11 0.317139C11.4776 0.317139 11.9395 0.488058 12.302 0.798983L18.638 6.22898L21.125 8.21898C21.2276 8.30106 21.313 8.40253 21.3763 8.51761C21.4396 8.63269 21.4797 8.75912 21.4942 8.88968C21.5087 9.02023 21.4973 9.15237 21.4607 9.27853C21.4241 9.4047 21.3631 9.52242 21.281 9.62498C21.1989 9.72754 21.0975 9.81294 20.9824 9.87628C20.8673 9.93963 20.7409 9.97969 20.6103 9.99417C20.4797 10.0087 20.3476 9.99729 20.2215 9.96071C20.0953 9.92413 19.9776 9.86306 19.875 9.78098L19 9.08098V17C19 17.5304 18.7893 18.0391 18.4142 18.4142C18.0391 18.7893 17.5304 19 17 19H13V14C13 13.4696 12.7893 12.9608 12.4142 12.5858C12.0391 12.2107 11.5304 12 11 12C10.4696 12 9.96086 12.2107 9.58579 12.5858C9.21071 12.9608 9 13.4696 9 14V19H5C4.46957 19 3.96086 18.7893 3.58579 18.4142C3.21071 18.0391 3 17.5304 3 17V9.07998L2.125 9.77998C2.02313 9.86697 1.90483 9.9326 1.77711 9.97298C1.6494 10.0134 1.51487 10.0277 1.38151 10.0151C1.24815 10.0025 1.11869 9.96319 1.0008 9.89959C0.882918 9.83598 0.779011 9.74935 0.695251 9.64481C0.611492 9.54028 0.549587 9.41999 0.513211 9.29107C0.476835 9.16215 0.46673 9.02724 0.483495 8.89435C0.500261 8.76145 0.543555 8.63328 0.610808 8.51743C0.678061 8.40159 0.767903 8.30044 0.874999 8.21998L3.362 6.22998L9.698 0.798983Z" fill="#373737"/>
</svg>
